# xmcd CD database file
#
# Track frame offsets:
#	150
#	20615
#	39707
#
# Disc length: 801 seconds
#
# Revision: 0
# Processed by: cddbd v1.5.1PL0 Copyright (c) Steve Scherf et al.
# Submitted via: CDex 1.51
#
DISCID=1f031f03
DTITLE=PEARL - 泣きくずれる君を抱きしめて (Single)
DYEAR=1993
DGENRE=Pop
TTITLE0=泣きくずれる君を抱きしめて
TTITLE1=Slow Down
TTITLE2=泣きくずれる君を抱きしめて（オリジナル・カラオケ）
EXTD=YEAR: 1993
EXTT0=
EXTT1=
EXTT2=
PLAYORDER=
